<svg xmlns="http://www.w3.org/2000/svg" x="0px" y="0px" width="100" height="100" viewBox="0 0 24 24" fill="#fff">
<path d="M 5.40625 3 C 5.613281 3.296875 5.78125 3.414063 5.78125 4.09375 L 5.78125 18.09375 C 5.78125 18.773438 5.488281 19.078125 5.28125 19.375 L 7.78125 19.375 C 7.574219 19.078125 7.28125 18.773438 7.28125 18.09375 L 7.28125 12.9375 C 8.972656 12.910156 10.367188 12.636719 11.5 12.1875 C 13.226563 14.035156 13.4375 16.730469 13.46875 17.46875 C 13.496094 18.207031 13.121094 18.84375 12.53125 19.375 L 15.8125 19.375 C 15.308594 19.109375 15.121094 18.398438 15.09375 17.71875 C 14.769531 14.648438 13.070313 12.277344 12.65625 11.65625 C 14.601563 10.492188 15.46875 8.679688 15.46875 7.03125 C 15.46875 4.285156 13.035156 3 10.9375 3 Z M 7.28125 3.96875 L 10.53125 3.96875 C 12.773438 3.96875 13.496094 5.402344 13.46875 6.90625 C 13.320313 11.066406 9.199219 11.6875 7.28125 11.6875 Z M 8.375 4.5625 C 8.582031 4.859375 8.71875 4.976563 8.71875 5.65625 L 8.71875 11.21875 C 9.207031 11.175781 9.878906 10.960938 10.21875 10.84375 L 10.21875 5.5625 L 12.875 5.5625 C 12.726563 5.195313 12.328125 4.742188 12.03125 4.5625 Z M 15.21875 4.78125 C 15.21875 4.78125 15.757813 5.761719 15.84375 6.46875 C 15.84375 6.46875 17.066406 7.816406 16.125 10.1875 C 15.394531 12.019531 13.71875 12.59375 13.71875 12.59375 L 14.3125 13.84375 C 14.3125 13.84375 14.386719 13.832031 14.53125 13.78125 C 14.902344 14.203125 16.394531 16.046875 16.46875 18.9375 C 16.46875 18.9375 16.5625 20.136719 15.5 20.96875 L 18.71875 20.96875 C 18.71875 20.96875 18.324219 20.6875 18.15625 19.9375 C 17.992188 19.1875 18.019531 17.867188 17.3125 16.28125 C 16.742188 15.007813 15.941406 13.714844 15.65625 13.25 C 16.515625 12.722656 17.578125 11.773438 18.15625 10.21875 C 19.238281 7.304688 17.175781 5.15625 15.21875 4.78125 Z M 10.21875 12.96875 C 10.011719 13.042969 9.101563 13.171875 8.71875 13.21875 L 8.71875 19.6875 C 8.71875 20.367188 8.425781 20.703125 8.21875 21 L 10.71875 21 C 10.511719 20.703125 10.21875 20.367188 10.21875 19.6875 L 10.21875 14.5625 C 10.996094 14.550781 11.746094 14.484375 12.40625 14.375 C 12.316406 14.074219 12.007813 13.425781 11.84375 13.15625 C 11.242188 13.257813 10.660156 13.3125 10.21875 13.3125 Z"></path>
</svg>